<?xml version="1.0" encoding="utf-8" ?>
<svg baseProfile="full" height="535" version="1.1" width="435" xmlns="http://www.w3.org/2000/svg" xmlns:ev="http://www.w3.org/2001/xml-events" xmlns:xlink="http://www.w3.org/1999/xlink"><defs /><text fill="#333" font-size="14" font-weight="bold" text-anchor="middle" x="217" y="30">Matrix Blocks</text><rect fill="#F8D7DA" height="135" opacity="0.3" rx="5" ry="5" width="135" x="5" y="45" /><text fill="#333" font-size="11" font-weight="bold" text-anchor="middle" x="72" y="40">Top Left</text><rect fill="#E9B451" height="24" rx="2" ry="2" stroke="#888" width="24" x="10" y="50" /><rect fill="#E9B451" height="24" rx="2" ry="2" stroke="#888" width="24" x="35" y="50" /><rect fill="#FCE3AE" height="24" rx="2" ry="2" stroke="#888" width="24" x="60" y="50" /><text dominant-baseline="middle" font-size="10" text-anchor="middle" x="72" y="62">3</text><rect fill="#E9B451" height="24" rx="2" ry="2" stroke="#888" width="24" x="85" y="50" /><rect fill="#E9B451" height="24" rx="2" ry="2" stroke="#888" width="24" x="110" y="50" /><rect fill="#E9B451" height="24" rx="2" ry="2" stroke="#888" width="24" x="10" y="75" /><rect fill="#E9B451" height="24" rx="2" ry="2" stroke="#888" width="24" x="35" y="75" /><rect fill="#E9B451" height="24" rx="2" ry="2" stroke="#888" width="24" x="60" y="75" /><rect fill="#E9B451" height="24" rx="2" ry="2" stroke="#888" width="24" x="85" y="75" /><rect fill="#E9B451" height="24" rx="2" ry="2" stroke="#888" width="24" x="110" y="75" /><rect fill="#E9B451" height="24" rx="2" ry="2" stroke="#888" width="24" x="10" y="100" /><rect fill="#E9B451" height="24" rx="2" ry="2" stroke="#888" width="24" x="35" y="100" /><rect fill="#E9B451" height="24" rx="2" ry="2" stroke="#888" width="24" x="60" y="100" /><rect fill="#E9B451" height="24" rx="2" ry="2" stroke="#888" width="24" x="85" y="100" /><rect fill="#E9B451" height="24" rx="2" ry="2" stroke="#888" width="24" x="110" y="100" /><rect fill="#E9B451" height="24" rx="2" ry="2" stroke="#888" width="24" x="10" y="125" /><rect fill="#E9B451" height="24" rx="2" ry="2" stroke="#888" width="24" x="35" y="125" /><rect fill="#E9B451" height="24" rx="2" ry="2" stroke="#888" width="24" x="60" y="125" /><rect fill="#E9B451" height="24" rx="2" ry="2" stroke="#888" width="24" x="85" y="125" /><rect fill="#E9B451" height="24" rx="2" ry="2" stroke="#888" width="24" x="110" y="125" /><rect fill="#E9B451" height="24" rx="2" ry="2" stroke="#888" width="24" x="10" y="150" /><rect fill="#E9B451" height="24" rx="2" ry="2" stroke="#888" width="24" x="35" y="150" /><rect fill="#E9B451" height="24" rx="2" ry="2" stroke="#888" width="24" x="60" y="150" /><rect fill="#E9B451" height="24" rx="2" ry="2" stroke="#888" width="24" x="85" y="150" /><rect fill="#E9B451" height="24" rx="2" ry="2" stroke="#888" width="24" x="110" y="150" /><rect fill="#D1ECF1" height="135" opacity="0.3" rx="5" ry="5" width="135" x="140" y="45" /><text fill="#333" font-size="11" font-weight="bold" text-anchor="middle" x="207" y="40">Top Center</text><rect fill="#E9B451" height="24" rx="2" ry="2" stroke="#888" width="24" x="145" y="50" /><rect fill="#FCE3AE" height="24" rx="2" ry="2" stroke="#888" width="24" x="170" y="50" /><text dominant-baseline="middle" font-size="10" text-anchor="middle" x="182" y="62">76</text><rect fill="#E9B451" height="24" rx="2" ry="2" stroke="#888" width="24" x="195" y="50" /><rect fill="#E9B451" height="24" rx="2" ry="2" stroke="#888" width="24" x="220" y="50" /><rect fill="#E9B451" height="24" rx="2" ry="2" stroke="#888" width="24" x="245" y="50" /><rect fill="#E9B451" height="24" rx="2" ry="2" stroke="#888" width="24" x="145" y="75" /><rect fill="#E9B451" height="24" rx="2" ry="2" stroke="#888" width="24" x="170" y="75" /><rect fill="#E9B451" height="24" rx="2" ry="2" stroke="#888" width="24" x="195" y="75" /><rect fill="#E9B451" height="24" rx="2" ry="2" stroke="#888" width="24" x="220" y="75" /><rect fill="#E9B451" height="24" rx="2" ry="2" stroke="#888" width="24" x="245" y="75" /><rect fill="#E9B451" height="24" rx="2" ry="2" stroke="#888" width="24" x="145" y="100" /><rect fill="#E9B451" height="24" rx="2" ry="2" stroke="#888" width="24" x="170" y="100" /><rect fill="#E9B451" height="24" rx="2" ry="2" stroke="#888" width="24" x="195" y="100" /><rect fill="#E9B451" height="24" rx="2" ry="2" stroke="#888" width="24" x="220" y="100" /><rect fill="#E9B451" height="24" rx="2" ry="2" stroke="#888" width="24" x="245" y="100" /><rect fill="#E9B451" height="24" rx="2" ry="2" stroke="#888" width="24" x="145" y="125" /><rect fill="#E9B451" height="24" rx="2" ry="2" stroke="#888" width="24" x="170" y="125" /><rect fill="#E9B451" height="24" rx="2" ry="2" stroke="#888" width="24" x="195" y="125" /><rect fill="#E9B451" height="24" rx="2" ry="2" stroke="#888" width="24" x="220" y="125" /><rect fill="#E9B451" height="24" rx="2" ry="2" stroke="#888" width="24" x="245" y="125" /><rect fill="#E9B451" height="24" rx="2" ry="2" stroke="#888" width="24" x="145" y="150" /><rect fill="#E9B451" height="24" rx="2" ry="2" stroke="#888" width="24" x="170" y="150" /><rect fill="#E9B451" height="24" rx="2" ry="2" stroke="#888" width="24" x="195" y="150" /><rect fill="#E9B451" height="24" rx="2" ry="2" stroke="#888" width="24" x="220" y="150" /><rect fill="#E9B451" height="24" rx="2" ry="2" stroke="#888" width="24" x="245" y="150" /><rect fill="#D4EDDA" height="135" opacity="0.3" rx="5" ry="5" width="135" x="275" y="45" /><text fill="#333" font-size="11" font-weight="bold" text-anchor="middle" x="342" y="40">Top Right</text><rect fill="#E9B451" height="24" rx="2" ry="2" stroke="#888" width="24" x="280" y="50" /><rect fill="#E9B451" height="24" rx="2" ry="2" stroke="#888" width="24" x="305" y="50" /><rect fill="#E9B451" height="24" rx="2" ry="2" stroke="#888" width="24" x="330" y="50" /><rect fill="#E9B451" height="24" rx="2" ry="2" stroke="#888" width="24" x="355" y="50" /><rect fill="#FCE3AE" height="24" rx="2" ry="2" stroke="#888" width="24" x="380" y="50" /><text dominant-baseline="middle" font-size="10" text-anchor="middle" x="392" y="62">7</text><rect fill="#E9B451" height="24" rx="2" ry="2" stroke="#888" width="24" x="280" y="75" /><rect fill="#E9B451" height="24" rx="2" ry="2" stroke="#888" width="24" x="305" y="75" /><rect fill="#E9B451" height="24" rx="2" ry="2" stroke="#888" width="24" x="330" y="75" /><rect fill="#E9B451" height="24" rx="2" ry="2" stroke="#888" width="24" x="355" y="75" /><rect fill="#E9B451" height="24" rx="2" ry="2" stroke="#888" width="24" x="380" y="75" /><rect fill="#E9B451" height="24" rx="2" ry="2" stroke="#888" width="24" x="280" y="100" /><rect fill="#E9B451" height="24" rx="2" ry="2" stroke="#888" width="24" x="305" y="100" /><rect fill="#E9B451" height="24" rx="2" ry="2" stroke="#888" width="24" x="330" y="100" /><rect fill="#E9B451" height="24" rx="2" ry="2" stroke="#888" width="24" x="355" y="100" /><rect fill="#E9B451" height="24" rx="2" ry="2" stroke="#888" width="24" x="380" y="100" /><rect fill="#E9B451" height="24" rx="2" ry="2" stroke="#888" width="24" x="280" y="125" /><rect fill="#E9B451" height="24" rx="2" ry="2" stroke="#888" width="24" x="305" y="125" /><rect fill="#E9B451" height="24" rx="2" ry="2" stroke="#888" width="24" x="330" y="125" /><rect fill="#E9B451" height="24" rx="2" ry="2" stroke="#888" width="24" x="355" y="125" /><rect fill="#E9B451" height="24" rx="2" ry="2" stroke="#888" width="24" x="380" y="125" /><rect fill="#E9B451" height="24" rx="2" ry="2" stroke="#888" width="24" x="280" y="150" /><rect fill="#E9B451" height="24" rx="2" ry="2" stroke="#888" width="24" x="305" y="150" /><rect fill="#E9B451" height="24" rx="2" ry="2" stroke="#888" width="24" x="330" y="150" /><rect fill="#E9B451" height="24" rx="2" ry="2" stroke="#888" width="24" x="355" y="150" /><rect fill="#E9B451" height="24" rx="2" ry="2" stroke="#888" width="24" x="380" y="150" /><rect fill="#FFF3CD" height="135" opacity="0.3" rx="5" ry="5" width="135" x="5" y="200" /><text fill="#333" font-size="11" font-weight="bold" text-anchor="middle" x="72" y="195">Middle Left</text><rect fill="#E9B451" height="24" rx="2" ry="2" stroke="#888" width="24" x="10" y="205" /><rect fill="#E9B451" height="24" rx="2" ry="2" stroke="#888" width="24" x="35" y="205" /><rect fill="#E9B451" height="24" rx="2" ry="2" stroke="#888" width="24" x="60" y="205" /><rect fill="#E9B451" height="24" rx="2" ry="2" stroke="#888" width="24" x="85" y="205" /><rect fill="#E9B451" height="24" rx="2" ry="2" stroke="#888" width="24" x="110" y="205" /><rect fill="#E9B451" height="24" rx="2" ry="2" stroke="#888" width="24" x="10" y="230" /><rect fill="#E9B451" height="24" rx="2" ry="2" stroke="#888" width="24" x="35" y="230" /><rect fill="#E9B451" height="24" rx="2" ry="2" stroke="#888" width="24" x="60" y="230" /><rect fill="#E9B451" height="24" rx="2" ry="2" stroke="#888" width="24" x="85" y="230" /><rect fill="#E9B451" height="24" rx="2" ry="2" stroke="#888" width="24" x="110" y="230" /><rect fill="#E9B451" height="24" rx="2" ry="2" stroke="#888" width="24" x="10" y="255" /><rect fill="#E9B451" height="24" rx="2" ry="2" stroke="#888" width="24" x="35" y="255" /><rect fill="#E9B451" height="24" rx="2" ry="2" stroke="#888" width="24" x="60" y="255" /><rect fill="#E9B451" height="24" rx="2" ry="2" stroke="#888" width="24" x="85" y="255" /><rect fill="#E9B451" height="24" rx="2" ry="2" stroke="#888" width="24" x="110" y="255" /><rect fill="#E9B451" height="24" rx="2" ry="2" stroke="#888" width="24" x="10" y="280" /><rect fill="#E9B451" height="24" rx="2" ry="2" stroke="#888" width="24" x="35" y="280" /><rect fill="#FCE3AE" height="24" rx="2" ry="2" stroke="#888" width="24" x="60" y="280" /><text dominant-baseline="middle" font-size="10" text-anchor="middle" x="72" y="292">2</text><rect fill="#E9B451" height="24" rx="2" ry="2" stroke="#888" width="24" x="85" y="280" /><rect fill="#E9B451" height="24" rx="2" ry="2" stroke="#888" width="24" x="110" y="280" /><rect fill="#E9B451" height="24" rx="2" ry="2" stroke="#888" width="24" x="10" y="305" /><rect fill="#E9B451" height="24" rx="2" ry="2" stroke="#888" width="24" x="35" y="305" /><rect fill="#E9B451" height="24" rx="2" ry="2" stroke="#888" width="24" x="60" y="305" /><rect fill="#E9B451" height="24" rx="2" ry="2" stroke="#888" width="24" x="85" y="305" /><rect fill="#E9B451" height="24" rx="2" ry="2" stroke="#888" width="24" x="110" y="305" /><rect fill="#E2E3E5" height="135" opacity="0.3" rx="5" ry="5" width="135" x="140" y="200" /><text fill="#333" font-size="11" font-weight="bold" text-anchor="middle" x="207" y="195">Center</text><rect fill="#E9B451" height="24" rx="2" ry="2" stroke="#888" width="24" x="145" y="205" /><rect fill="#E9B451" height="24" rx="2" ry="2" stroke="#888" width="24" x="170" y="205" /><rect fill="#E9B451" height="24" rx="2" ry="2" stroke="#888" width="24" x="195" y="205" /><rect fill="#E9B451" height="24" rx="2" ry="2" stroke="#888" width="24" x="220" y="205" /><rect fill="#E9B451" height="24" rx="2" ry="2" stroke="#888" width="24" x="245" y="205" /><rect fill="#E9B451" height="24" rx="2" ry="2" stroke="#888" width="24" x="145" y="230" /><rect fill="#E9B451" height="24" rx="2" ry="2" stroke="#888" width="24" x="170" y="230" /><rect fill="#E9B451" height="24" rx="2" ry="2" stroke="#888" width="24" x="195" y="230" /><rect fill="#E9B451" height="24" rx="2" ry="2" stroke="#888" width="24" x="220" y="230" /><rect fill="#E9B451" height="24" rx="2" ry="2" stroke="#888" width="24" x="245" y="230" /><rect fill="#E9B451" height="24" rx="2" ry="2" stroke="#888" width="24" x="145" y="255" /><rect fill="#FCE3AE" height="24" rx="2" ry="2" stroke="#888" width="24" x="170" y="255" /><text dominant-baseline="middle" font-size="10" text-anchor="middle" x="182" y="267">7</text><rect fill="#E9B451" height="24" rx="2" ry="2" stroke="#888" width="24" x="195" y="255" /><rect fill="#E9B451" height="24" rx="2" ry="2" stroke="#888" width="24" x="220" y="255" /><rect fill="#E9B451" height="24" rx="2" ry="2" stroke="#888" width="24" x="245" y="255" /><rect fill="#E9B451" height="24" rx="2" ry="2" stroke="#888" width="24" x="145" y="280" /><rect fill="#E9B451" height="24" rx="2" ry="2" stroke="#888" width="24" x="170" y="280" /><rect fill="#E9B451" height="24" rx="2" ry="2" stroke="#888" width="24" x="195" y="280" /><rect fill="#E9B451" height="24" rx="2" ry="2" stroke="#888" width="24" x="220" y="280" /><rect fill="#E9B451" height="24" rx="2" ry="2" stroke="#888" width="24" x="245" y="280" /><rect fill="#E9B451" height="24" rx="2" ry="2" stroke="#888" width="24" x="145" y="305" /><rect fill="#E9B451" height="24" rx="2" ry="2" stroke="#888" width="24" x="170" y="305" /><rect fill="#E9B451" height="24" rx="2" ry="2" stroke="#888" width="24" x="195" y="305" /><rect fill="#E9B451" height="24" rx="2" ry="2" stroke="#888" width="24" x="220" y="305" /><rect fill="#E9B451" height="24" rx="2" ry="2" stroke="#888" width="24" x="245" y="305" /><rect fill="#FCE3AE" height="135" opacity="0.3" rx="5" ry="5" width="135" x="275" y="200" /><text fill="#333" font-size="11" font-weight="bold" text-anchor="middle" x="342" y="195">Middle Right</text><rect fill="#E9B451" height="24" rx="2" ry="2" stroke="#888" width="24" x="280" y="205" /><rect fill="#E9B451" height="24" rx="2" ry="2" stroke="#888" width="24" x="305" y="205" /><rect fill="#E9B451" height="24" rx="2" ry="2" stroke="#888" width="24" x="330" y="205" /><rect fill="#E9B451" height="24" rx="2" ry="2" stroke="#888" width="24" x="355" y="205" /><rect fill="#E9B451" height="24" rx="2" ry="2" stroke="#888" width="24" x="380" y="205" /><rect fill="#E9B451" height="24" rx="2" ry="2" stroke="#888" width="24" x="280" y="230" /><rect fill="#E9B451" height="24" rx="2" ry="2" stroke="#888" width="24" x="305" y="230" /><rect fill="#E9B451" height="24" rx="2" ry="2" stroke="#888" width="24" x="330" y="230" /><rect fill="#E9B451" height="24" rx="2" ry="2" stroke="#888" width="24" x="355" y="230" /><rect fill="#E9B451" height="24" rx="2" ry="2" stroke="#888" width="24" x="380" y="230" /><rect fill="#E9B451" height="24" rx="2" ry="2" stroke="#888" width="24" x="280" y="255" /><rect fill="#E9B451" height="24" rx="2" ry="2" stroke="#888" width="24" x="305" y="255" /><rect fill="#E9B451" height="24" rx="2" ry="2" stroke="#888" width="24" x="330" y="255" /><rect fill="#E9B451" height="24" rx="2" ry="2" stroke="#888" width="24" x="355" y="255" /><rect fill="#FCE3AE" height="24" rx="2" ry="2" stroke="#888" width="24" x="380" y="255" /><text dominant-baseline="middle" font-size="10" text-anchor="middle" x="392" y="267">5</text><rect fill="#E9B451" height="24" rx="2" ry="2" stroke="#888" width="24" x="280" y="280" /><rect fill="#E9B451" height="24" rx="2" ry="2" stroke="#888" width="24" x="305" y="280" /><rect fill="#E9B451" height="24" rx="2" ry="2" stroke="#888" width="24" x="330" y="280" /><rect fill="#E9B451" height="24" rx="2" ry="2" stroke="#888" width="24" x="355" y="280" /><rect fill="#E9B451" height="24" rx="2" ry="2" stroke="#888" width="24" x="380" y="280" /><rect fill="#E9B451" height="24" rx="2" ry="2" stroke="#888" width="24" x="280" y="305" /><rect fill="#E9B451" height="24" rx="2" ry="2" stroke="#888" width="24" x="305" y="305" /><rect fill="#E9B451" height="24" rx="2" ry="2" stroke="#888" width="24" x="330" y="305" /><rect fill="#E9B451" height="24" rx="2" ry="2" stroke="#888" width="24" x="355" y="305" /><rect fill="#E9B451" height="24" rx="2" ry="2" stroke="#888" width="24" x="380" y="305" /><rect fill="#D6C8E4" height="135" opacity="0.3" rx="5" ry="5" width="135" x="5" y="355" /><text fill="#333" font-size="11" font-weight="bold" text-anchor="middle" x="72" y="350">Bottom Left</text><rect fill="#E9B451" height="24" rx="2" ry="2" stroke="#888" width="24" x="10" y="360" /><rect fill="#E9B451" height="24" rx="2" ry="2" stroke="#888" width="24" x="35" y="360" /><rect fill="#E9B451" height="24" rx="2" ry="2" stroke="#888" width="24" x="60" y="360" /><rect fill="#E9B451" height="24" rx="2" ry="2" stroke="#888" width="24" x="85" y="360" /><rect fill="#E9B451" height="24" rx="2" ry="2" stroke="#888" width="24" x="110" y="360" /><rect fill="#E9B451" height="24" rx="2" ry="2" stroke="#888" width="24" x="10" y="385" /><rect fill="#E9B451" height="24" rx="2" ry="2" stroke="#888" width="24" x="35" y="385" /><rect fill="#E9B451" height="24" rx="2" ry="2" stroke="#888" width="24" x="60" y="385" /><rect fill="#E9B451" height="24" rx="2" ry="2" stroke="#888" width="24" x="85" y="385" /><rect fill="#E9B451" height="24" rx="2" ry="2" stroke="#888" width="24" x="110" y="385" /><rect fill="#E9B451" height="24" rx="2" ry="2" stroke="#888" width="24" x="10" y="410" /><rect fill="#E9B451" height="24" rx="2" ry="2" stroke="#888" width="24" x="35" y="410" /><rect fill="#E9B451" height="24" rx="2" ry="2" stroke="#888" width="24" x="60" y="410" /><rect fill="#E9B451" height="24" rx="2" ry="2" stroke="#888" width="24" x="85" y="410" /><rect fill="#E9B451" height="24" rx="2" ry="2" stroke="#888" width="24" x="110" y="410" /><rect fill="#E9B451" height="24" rx="2" ry="2" stroke="#888" width="24" x="10" y="435" /><rect fill="#E9B451" height="24" rx="2" ry="2" stroke="#888" width="24" x="35" y="435" /><rect fill="#E9B451" height="24" rx="2" ry="2" stroke="#888" width="24" x="60" y="435" /><rect fill="#E9B451" height="24" rx="2" ry="2" stroke="#888" width="24" x="85" y="435" /><rect fill="#E9B451" height="24" rx="2" ry="2" stroke="#888" width="24" x="110" y="435" /><rect fill="#FCE3AE" height="24" rx="2" ry="2" stroke="#888" width="24" x="10" y="460" /><text dominant-baseline="middle" font-size="10" text-anchor="middle" x="22" y="472">1</text><rect fill="#E9B451" height="24" rx="2" ry="2" stroke="#888" width="24" x="35" y="460" /><rect fill="#E9B451" height="24" rx="2" ry="2" stroke="#888" width="24" x="60" y="460" /><rect fill="#E9B451" height="24" rx="2" ry="2" stroke="#888" width="24" x="85" y="460" /><rect fill="#E9B451" height="24" rx="2" ry="2" stroke="#888" width="24" x="110" y="460" /><rect fill="#B8D8EB" height="135" opacity="0.3" rx="5" ry="5" width="135" x="140" y="355" /><text fill="#333" font-size="11" font-weight="bold" text-anchor="middle" x="207" y="350">Bottom Center</text><rect fill="#E9B451" height="24" rx="2" ry="2" stroke="#888" width="24" x="145" y="360" /><rect fill="#E9B451" height="24" rx="2" ry="2" stroke="#888" width="24" x="170" y="360" /><rect fill="#E9B451" height="24" rx="2" ry="2" stroke="#888" width="24" x="195" y="360" /><rect fill="#E9B451" height="24" rx="2" ry="2" stroke="#888" width="24" x="220" y="360" /><rect fill="#E9B451" height="24" rx="2" ry="2" stroke="#888" width="24" x="245" y="360" /><rect fill="#E9B451" height="24" rx="2" ry="2" stroke="#888" width="24" x="145" y="385" /><rect fill="#E9B451" height="24" rx="2" ry="2" stroke="#888" width="24" x="170" y="385" /><rect fill="#E9B451" height="24" rx="2" ry="2" stroke="#888" width="24" x="195" y="385" /><rect fill="#E9B451" height="24" rx="2" ry="2" stroke="#888" width="24" x="220" y="385" /><rect fill="#E9B451" height="24" rx="2" ry="2" stroke="#888" width="24" x="245" y="385" /><rect fill="#E9B451" height="24" rx="2" ry="2" stroke="#888" width="24" x="145" y="410" /><rect fill="#E9B451" height="24" rx="2" ry="2" stroke="#888" width="24" x="170" y="410" /><rect fill="#E9B451" height="24" rx="2" ry="2" stroke="#888" width="24" x="195" y="410" /><rect fill="#E9B451" height="24" rx="2" ry="2" stroke="#888" width="24" x="220" y="410" /><rect fill="#E9B451" height="24" rx="2" ry="2" stroke="#888" width="24" x="245" y="410" /><rect fill="#E9B451" height="24" rx="2" ry="2" stroke="#888" width="24" x="145" y="435" /><rect fill="#E9B451" height="24" rx="2" ry="2" stroke="#888" width="24" x="170" y="435" /><rect fill="#E9B451" height="24" rx="2" ry="2" stroke="#888" width="24" x="195" y="435" /><rect fill="#E9B451" height="24" rx="2" ry="2" stroke="#888" width="24" x="220" y="435" /><rect fill="#E9B451" height="24" rx="2" ry="2" stroke="#888" width="24" x="245" y="435" /><rect fill="#E9B451" height="24" rx="2" ry="2" stroke="#888" width="24" x="145" y="460" /><rect fill="#FCE3AE" height="24" rx="2" ry="2" stroke="#888" width="24" x="170" y="460" /><text dominant-baseline="middle" font-size="10" text-anchor="middle" x="182" y="472">12</text><rect fill="#E9B451" height="24" rx="2" ry="2" stroke="#888" width="24" x="195" y="460" /><rect fill="#E9B451" height="24" rx="2" ry="2" stroke="#888" width="24" x="220" y="460" /><rect fill="#E9B451" height="24" rx="2" ry="2" stroke="#888" width="24" x="245" y="460" /><rect fill="#C9E4CA" height="135" opacity="0.3" rx="5" ry="5" width="135" x="275" y="355" /><text fill="#333" font-size="11" font-weight="bold" text-anchor="middle" x="342" y="350">Bottom Right</text><rect fill="#E9B451" height="24" rx="2" ry="2" stroke="#888" width="24" x="280" y="360" /><rect fill="#E9B451" height="24" rx="2" ry="2" stroke="#888" width="24" x="305" y="360" /><rect fill="#E9B451" height="24" rx="2" ry="2" stroke="#888" width="24" x="330" y="360" /><rect fill="#E9B451" height="24" rx="2" ry="2" stroke="#888" width="24" x="355" y="360" /><rect fill="#E9B451" height="24" rx="2" ry="2" stroke="#888" width="24" x="380" y="360" /><rect fill="#E9B451" height="24" rx="2" ry="2" stroke="#888" width="24" x="280" y="385" /><rect fill="#E9B451" height="24" rx="2" ry="2" stroke="#888" width="24" x="305" y="385" /><rect fill="#E9B451" height="24" rx="2" ry="2" stroke="#888" width="24" x="330" y="385" /><rect fill="#E9B451" height="24" rx="2" ry="2" stroke="#888" width="24" x="355" y="385" /><rect fill="#E9B451" height="24" rx="2" ry="2" stroke="#888" width="24" x="380" y="385" /><rect fill="#E9B451" height="24" rx="2" ry="2" stroke="#888" width="24" x="280" y="410" /><rect fill="#E9B451" height="24" rx="2" ry="2" stroke="#888" width="24" x="305" y="410" /><rect fill="#E9B451" height="24" rx="2" ry="2" stroke="#888" width="24" x="330" y="410" /><rect fill="#E9B451" height="24" rx="2" ry="2" stroke="#888" width="24" x="355" y="410" /><rect fill="#E9B451" height="24" rx="2" ry="2" stroke="#888" width="24" x="380" y="410" /><rect fill="#E9B451" height="24" rx="2" ry="2" stroke="#888" width="24" x="280" y="435" /><rect fill="#E9B451" height="24" rx="2" ry="2" stroke="#888" width="24" x="305" y="435" /><rect fill="#E9B451" height="24" rx="2" ry="2" stroke="#888" width="24" x="330" y="435" /><rect fill="#E9B451" height="24" rx="2" ry="2" stroke="#888" width="24" x="355" y="435" /><rect fill="#E9B451" height="24" rx="2" ry="2" stroke="#888" width="24" x="380" y="435" /><rect fill="#E9B451" height="24" rx="2" ry="2" stroke="#888" width="24" x="280" y="460" /><rect fill="#E9B451" height="24" rx="2" ry="2" stroke="#888" width="24" x="305" y="460" /><rect fill="#E9B451" height="24" rx="2" ry="2" stroke="#888" width="24" x="330" y="460" /><rect fill="#E9B451" height="24" rx="2" ry="2" stroke="#888" width="24" x="355" y="460" /><rect fill="#FCE3AE" height="24" rx="2" ry="2" stroke="#888" width="24" x="380" y="460" /><text dominant-baseline="middle" font-size="10" text-anchor="middle" x="392" y="472">12</text></svg>