<?xml version="1.0" encoding="utf-8" ?>
<svg baseProfile="full" height="100%" version="1.1" width="100%" xmlns="http://www.w3.org/2000/svg" xmlns:ev="http://www.w3.org/2001/xml-events" xmlns:xlink="http://www.w3.org/1999/xlink"><defs /><path d="M 500 130 C 500 170, 300 180, 300 200" fill="none" stroke="#78909C" stroke-width="2" /><path d="M 500 130 C 500 170, 400 180, 400 200" fill="none" stroke="#78909C" stroke-width="2" /><path d="M 500 130 C 500 170, 500 180, 500 200" fill="none" stroke="#78909C" stroke-width="2" /><path d="M 500 130 C 500 170, 600 180, 600 200" fill="none" stroke="#78909C" stroke-width="2" /><path d="M 500 130 C 500 170, 700 180, 700 200" fill="none" stroke="#78909C" stroke-width="2" /><path d="M 300 250 C 300 290, 300 300, 300 320" fill="none" stroke="#78909C" stroke-width="2" /><circle cx="500" cy="100" fill="#4CAF50" r="30" stroke="#388E3C" stroke-width="2" /><text fill="white" font-size="14px" font-weight="bold" text-anchor="middle" x="500" y="105">7</text><circle cx="500" cy="55" fill="#2196F3" r="20" stroke="#1565C0" stroke-width="1.5" /><text fill="white" font-size="12px" text-anchor="middle" x="500" y="60">0</text><text fill="#616161" font-size="10px" text-anchor="middle" x="500" y="40">Предки:</text><circle cx="300" cy="220" fill="#4CAF50" r="30" stroke="#388E3C" stroke-width="2" /><text fill="white" font-size="14px" font-weight="bold" text-anchor="middle" x="300" y="225">2</text><circle cx="300" cy="175" fill="#2196F3" r="20" stroke="#1565C0" stroke-width="1.5" /><text fill="white" font-size="12px" text-anchor="middle" x="300" y="180">7</text><text fill="#616161" font-size="10px" text-anchor="middle" x="300" y="160">Предки:</text><circle cx="400" cy="220" fill="#4CAF50" r="30" stroke="#388E3C" stroke-width="2" /><text fill="white" font-size="14px" font-weight="bold" text-anchor="middle" x="400" y="225">5</text><circle cx="400" cy="175" fill="#2196F3" r="20" stroke="#1565C0" stroke-width="1.5" /><text fill="white" font-size="12px" text-anchor="middle" x="400" y="180">7</text><text fill="#616161" font-size="10px" text-anchor="middle" x="400" y="160">Предки:</text><circle cx="500" cy="220" fill="#4CAF50" r="30" stroke="#388E3C" stroke-width="2" /><text fill="white" font-size="14px" font-weight="bold" text-anchor="middle" x="500" y="225">4</text><circle cx="500" cy="175" fill="#2196F3" r="20" stroke="#1565C0" stroke-width="1.5" /><text fill="white" font-size="12px" text-anchor="middle" x="500" y="180">7</text><text fill="#616161" font-size="10px" text-anchor="middle" x="500" y="160">Предки:</text><circle cx="600" cy="220" fill="#4CAF50" r="30" stroke="#388E3C" stroke-width="2" /><text fill="white" font-size="14px" font-weight="bold" text-anchor="middle" x="600" y="225">7</text><circle cx="600" cy="175" fill="#2196F3" r="20" stroke="#1565C0" stroke-width="1.5" /><text fill="white" font-size="12px" text-anchor="middle" x="600" y="180">7</text><text fill="#616161" font-size="10px" text-anchor="middle" x="600" y="160">Предки:</text><circle cx="700" cy="220" fill="#4CAF50" r="30" stroke="#388E3C" stroke-width="2" /><text fill="white" font-size="14px" font-weight="bold" text-anchor="middle" x="700" y="225">6</text><circle cx="700" cy="175" fill="#2196F3" r="20" stroke="#1565C0" stroke-width="1.5" /><text fill="white" font-size="12px" text-anchor="middle" x="700" y="180">7</text><text fill="#616161" font-size="10px" text-anchor="middle" x="700" y="160">Предки:</text><circle cx="300" cy="340" fill="#4CAF50" r="30" stroke="#388E3C" stroke-width="2" /><text fill="white" font-size="14px" font-weight="bold" text-anchor="middle" x="300" y="345">2</text><circle cx="300" cy="295" fill="#2196F3" r="20" stroke="#1565C0" stroke-width="1.5" /><text fill="white" font-size="12px" text-anchor="middle" x="300" y="300">9</text><text fill="#616161" font-size="10px" text-anchor="middle" x="300" y="280">Предки:</text><rect fill="white" height="80" rx="5" ry="5" stroke="#BDBDBD" width="200" x="40" y="30" /><circle cx="70" cy="65" fill="#4CAF50" r="15" stroke="#388E3C" stroke-width="2" /><text fill="#212121" font-size="12px" x="110" y="70">Значение узла</text><circle cx="70" cy="95" fill="#2196F3" r="12" stroke="#1565C0" stroke-width="1.5" /><text fill="#212121" font-size="12px" x="110" y="100">Сумма предков</text></svg>